HIERARCHY
ROOT SpineBase
{
  OFFSET 0.000000 0.000000 0.000000
  CHANNELS 6 Xposition Yposition Zposition Zrotation Xrotation Yrotation
  JOINT SpineMid
  {
    OFFSET 0.000000 31.998659 0.000000
    CHANNELS 3 Zrotation Xrotation Yrotation
    JOINT SpineShoulder
    {
      OFFSET 0.048986 23.712506 -0.774490
      CHANNELS 3 Zrotation Xrotation Yrotation
      JOINT Neck
      {
        OFFSET 0.039051 7.825271 -0.585831
        CHANNELS 3 Zrotation Xrotation Yrotation
        JOINT Head
        {
          OFFSET 5.265572 11.725210 6.160707
          CHANNELS 3 Zrotation Xrotation Yrotation
          End Site
          {
            OFFSET 0 0 0
          }
        }
      }
      JOINT ShoulderLeft
      {
        OFFSET -9.240448 -3.366515 -14.174966
        CHANNELS 3 Zrotation Xrotation Yrotation
        JOINT ElbowLeft
        {
          OFFSET -7.146991 -27.077979 -7.735031
          CHANNELS 3 Zrotation Xrotation Yrotation
          JOINT WristLeft
          {
            OFFSET 3.163134 -23.414978 -4.540947
            CHANNELS 3 Zrotation Xrotation Yrotation
            JOINT HandLeft
            {
              OFFSET 1.198857 -8.080266 0.925482
              CHANNELS 3 Zrotation Xrotation Yrotation
              JOINT HandTipLeft
              {
                OFFSET 1.347117 -6.644428 2.309153
                CHANNELS 3 Zrotation Xrotation Yrotation
                End Site
                {
                  OFFSET 0 0 0
                }
              }
              JOINT ThumbLeft
              {
                OFFSET 2.807468 2.323083 1.299942
                CHANNELS 3 Zrotation Xrotation Yrotation
                End Site
                {
                  OFFSET 0 0 0
                }
              }
            }
          }
        }
      }
      JOINT ShoulderRight
      {
        OFFSET 8.899424 -5.535053 10.265315
        CHANNELS 3 Zrotation Xrotation Yrotation
        JOINT ElbowRight
        {
          OFFSET 3.117594 -30.870657 7.581669
          CHANNELS 3 Zrotation Xrotation Yrotation
          JOINT WristRight
          {
            OFFSET 1.333207 -25.468868 2.509591
            CHANNELS 3 Zrotation Xrotation Yrotation
            JOINT HandRight
            {
              OFFSET -0.754206 -5.567180 1.661075
              CHANNELS 3 Zrotation Xrotation Yrotation
              JOINT HandTipRight
              {
                OFFSET 0.771748 -4.872833 -0.401873
                CHANNELS 3 Zrotation Xrotation Yrotation
                End Site
                {
                  OFFSET 0 0 0
                }
              }
              JOINT ThumbRight
              {
                OFFSET -2.310877 0.948306 -2.911872
                CHANNELS 3 Zrotation Xrotation Yrotation
                End Site
                {
                  OFFSET 0 0 0
                }
              }
            }
          }
        }
      }
    }
  }
  JOINT HipLeft
  {
    OFFSET -4.093729 1.110203 -8.819175
    CHANNELS 3 Zrotation Xrotation Yrotation
    JOINT KneeLeft
    {
      OFFSET -10.881325 -34.760608 -2.931363
      CHANNELS 3 Zrotation Xrotation Yrotation
      JOINT AnkleLeft
      {
        OFFSET -12.043378 -37.908745 -0.547023
        CHANNELS 3 Zrotation Xrotation Yrotation
        JOINT FootLeft
        {
          OFFSET -2.031923 -7.344101 -8.520831
          CHANNELS 3 Zrotation Xrotation Yrotation
          End Site
          {
            OFFSET 0 0 0
          }
        }
      }
    }
  }
  JOINT HipRight
  {
    OFFSET 4.746669 0.241517 1.673941
    CHANNELS 3 Zrotation Xrotation Yrotation
    JOINT KneeRight
    {
      OFFSET -3.730075 -37.214369 5.915781
      CHANNELS 3 Zrotation Xrotation Yrotation
      JOINT AnkleRight
      {
        OFFSET -7.655811 -35.372562 7.286067
        CHANNELS 3 Zrotation Xrotation Yrotation
        JOINT FootRight
        {
          OFFSET 1.730729 -8.454949 -4.855055
          CHANNELS 3 Zrotation Xrotation Yrotation
          End Site
          {
            OFFSET 0 0 0
          }
        }
      }
    }
  }
}
MOTION
Frames: 5
Frame Time: 0.033333
-32.748159 82.057146 353.721018 -0.000000 0.000000 -49.886031 0.000000 0.000000 49.886031 -0.000000 0.000000 0.000000 -0.000000 0.000000 0.000000 0.000000 0.000000 0.000000 -0.000000 0.000000 0.000000 -0.000000 0.000000 0.000000 -0.000000 0.000000 0.000000 -0.000000 0.000000 0.000000 0.000000 0.000000 0.000000 0.000000 0.000000 0.000000 -0.000000 0.000000 0.000000 -0.000000 0.000000 0.000000 -0.000000 0.000000 0.000000 -0.000000 0.000000 0.000000 0.000000 0.000000 0.000000 0.000000 0.000000 0.000000 0.000000 0.000000 49.886031 -0.000000 0.000000 0.000000 -0.000000 0.000000 0.000000 0.000000 0.000000 0.000000 0.000000 0.000000 49.886031 -0.000000 0.000000 0.000000 -0.000000 0.000000 0.000000 0.000000 0.000000 0.000000
-32.781837 82.135931 353.481835 0.404887 -0.283611 -49.353556 -0.478925 -0.122467 49.354047 -0.000000 0.000000 0.000000 -0.000000 0.000000 0.000000 0.000000 0.000000 0.000000 0.846691 0.709102 -0.434348 0.957159 0.267555 0.212444 -2.178094 1.831067 0.582001 0.919022 -1.359419 0.145198 0.000000 0.000000 0.000000 0.000000 0.000000 0.000000 -0.000000 0.000000 0.000000 -0.000000 0.000000 0.000000 -1.952088 7.290717 -1.471653 0.942143 -9.780222 1.258889 0.000000 0.000000 0.000000 0.000000 0.000000 0.000000 -0.478925 -0.122467 49.354047 -0.000000 0.000000 0.000000 0.300498 0.572505 -0.505978 0.000000 0.000000 0.000000 -0.478925 -0.122467 49.354047 -0.000000 0.000000 0.000000 1.579888 -0.306026 -0.964429 0.000000 0.000000 0.000000
-32.823808 82.204231 353.269305 0.762422 -0.534859 -48.866921 0.166944 0.091396 48.901923 0.034251 -0.000571 0.043843 -0.974542 0.602316 -0.070868 0.000000 0.000000 0.000000 0.593474 1.861543 -0.885256 1.722223 0.471141 0.381080 -4.090657 3.163085 1.008005 1.795000 -2.076999 0.398523 0.000000 0.000000 0.000000 0.000000 0.000000 0.000000 -0.974542 0.602316 -0.070868 -0.000000 0.000000 0.000000 -3.492021 12.916786 -2.477211 2.144782 -17.669792 2.221318 0.000000 0.000000 0.000000 0.000000 0.000000 0.000000 -0.904364 -0.222428 48.868725 -0.000000 0.000000 0.000000 0.575791 1.048311 -0.954544 0.000000 0.000000 0.000000 -0.904364 -0.222428 48.868725 -0.000000 0.000000 0.000000 2.909280 -0.512160 -1.758014 0.000000 0.000000 0.000000
-32.874074 82.262046 353.083429 1.072477 -0.753647 -48.429244 0.224575 0.120348 48.479882 0.045012 -0.000739 0.060822 -1.355016 0.844994 -0.095718 0.000000 0.000000 0.000000 0.807766 2.503433 -1.215426 2.293498 0.600548 0.506626 -5.707819 3.888249 1.272834 2.605601 -2.079201 0.726941 0.000000 0.000000 0.000000 0.000000 0.000000 0.000000 -1.355016 0.844994 -0.095718 -0.000000 0.000000 0.000000 -4.724086 16.893484 -3.134348 3.647674 -23.450933 3.068318 0.000000 0.000000 0.000000 0.000000 0.000000 0.000000 -1.275434 -0.302338 48.432932 -0.000000 0.000000 0.000000 0.820734 1.421077 -1.338954 0.000000 0.000000 0.000000 -1.275434 -0.302338 48.432932 0.121339 -0.892902 0.218895 3.865189 0.270012 -2.661060 0.000000 0.000000 0.000000
-32.932633 82.309378 352.924207 1.334953 -0.939911 -48.043158 0.264481 0.138812 48.107593 0.051548 -0.000960 0.074555 -1.664237 1.048446 -0.114674 0.000000 0.000000 0.000000 0.967801 2.959547 -1.464799 2.671233 0.648941 0.589772 -7.007846 3.932938 1.371145 3.327501 -1.326885 1.095737 0.000000 0.000000 0.000000 0.000000 0.000000 0.000000 -1.664237 1.048446 -0.114674 -0.000000 0.000000 0.000000 -5.723284 19.306461 -3.529472 5.480599 -26.998582 3.928756 0.000000 0.000000 0.000000 0.000000 0.000000 0.000000 -1.591409 -0.364450 48.049047 -0.000000 0.000000 0.000000 1.030767 1.685818 -1.653354 0.000000 0.000000 0.000000 -1.591409 -0.364450 48.049047 0.163186 -1.152904 0.284289 4.648048 0.547313 -3.216929 0.000000 0.000000 0.000000
